#!OML:ASF H:\Terrain\Patient Classification 1\Walking\steve\steve.ASF
:FULLY-SPECIFIED
:DEGREES
16
root 7.14414 15.6145 -28.9024 4.52729 0.244698 -1.10062
lowerback 2.36177 1.56399 1.23368
upperback -2.57858 2.21968 2.11374
thorax -4.01842 1.10284 1.35857
lowerneck -10.5082 -1.75639 -4.28317
upperneck 15.4389 -2.38786 4.3634
head 6.5284 -1.04425 1.89569
rclavicle 1.53235e-014 3.49861e-014
rhumerus -42.8837 -23.0934 -71.3482
rradius 22.8535
rwrist 22.9942
rhand 177.4 -68.8684
rfingers 7.12502
rthumb -156.902 -40.2328
lclavicle 1.53235e-014 3.49861e-014
lhumerus -29.8364 -5.25609 91.4778
lradius 34.9506
lwrist 16.1974
lhand -26.7891 -16.4045
lfingers 7.12502
lthumb -0.216372 13.5751
rfemur -24.5721 4.63084 26.8373
rtibia 38.6513
rfoot -15.746 10.8365
rtoes 4.98033
lfemur -21.3961 5.88689 -19.3709
ltibia 71.7579
lfoot -1.3536 6.24979
ltoes -8.78061
17
root 7.15354 15.6431 -28.6658 4.31639 0.00623435 -1.20557
lowerback 2.40966 1.71496 1.44102
upperback -2.47974 2.42496 2.01775
thorax -3.93346 1.19759 1.13171
lowerneck -10.5973 -1.852 -4.28931
upperneck 15.7089 -2.52399 4.37356
head 6.63668 -1.10761 1.88869
rclavicle 4.13721e-015 6.36111e-015
rhumerus -41.3275 -21.721 -73.2279
rradius 24.2824
rwrist 21.4935
rhand 177.194 -69.0267
rfingers 7.12502
rthumb -157.1 -40.3665
lclavicle 4.13721e-015 6.36111e-015
lhumerus -30.8048 -4.74711 91.4766
lradius 33.149
lwrist 14.5693
lhand -26.8241 -16.1546
lfingers 7.12502
lthumb -0.250173 13.825
rfemur -22.8905 4.42603 27.0139
rtibia 37.7085
rfoot -15.9009 11.2818
rtoes 4.27577
lfemur -22.8333 6.12956 -19.3782
ltibia 71.7645
lfoot -2.73444 5.52399
ltoes -9.74774
18
root 7.16728 15.6763 -28.4204 4.33673 -0.298676 -1.72515
lowerback 2.22216 1.89486 2.20729
upperback -2.50561 2.68907 1.96833
thorax -3.8203 1.30712 0.644534
lowerneck -10.7334 -1.77539 -4.36643
upperneck 16.2683 -2.51139 4.90405
head 6.84601 -1.05792 2.07682
rclavicle -5.22062e-015 0
rhumerus -40.0643 -20.5177 -74.7455
rradius 25.6931
rwrist 20.3071
rhand 177.496 -69.1302
rfingers 7.12502
rthumb -156.81 -40.5062
lclavicle -5.22062e-015 0
lhumerus -31.695 -4.60715 91.4752
lradius 31.0082
lwrist 13.1948
lhand -26.7925 -16.3074
lfingers 7.12502
lthumb -0.219701 13.6722
rfemur -21.442 4.33142 27.5769
rtibia 36.7844
rfoot -16.309 11.555
rtoes 2.20302
lfemur -24.4723 6.3979 -18.9468
ltibia 71.582
lfoot -4.00102 4.60646
ltoes -9.34221
19
root 7.17116 15.6946 -28.1938 4.65545 -0.542477 -2.11605
lowerback 1.9926 2.04555 2.59164
upperback -2.71614 2.90297 1.95848
thorax -3.88949 1.40108 0.413891
lowerneck -10.2046 -1.84207 -4.29482
upperneck 16.0885 -2.61818 4.84855
head 6.6992 -1.11732 2.03868
rclavicle -1.41572e-014 -3.57812e-015
rhumerus -39.0038 -18.5706 -76.4999
rradius 27.513
rwrist 17.7735
rhand 177.779 -68.999
rfingers 7.12502
rthumb -156.538 -40.4095
lclavicle -1.41572e-014 -3.57812e-015
lhumerus -32.5339 -3.90299 91.2919
lradius 28.729
lwrist 11.5368
lhand -26.0478 -16.5346
lfingers 7.12502
lthumb 0.499542 13.4445
rfemur -20.4725 4.24943 28.0205
rtibia 35.9402
rfoot -16.7622 11.7934
rtoes 2.27007
lfemur -26.5277 6.61167 -18.6631
ltibia 71.2432
lfoot -4.88484 3.88119
ltoes -10.4396
20
root 7.16894 15.6976 -27.9833 4.86067 -0.580724 -2.28216
lowerback 2.09738 2.08558 2.59712
upperback -2.9071 2.96823 1.96197
thorax -4.14679 1.42981 0.403138
lowerneck -10.0467 -1.82126 -4.36833
upperneck 16.2202 -2.62151 5.04429
head 6.71696 -1.1086 2.11554
rclavicle 4.36954e-014 1.78906e-014
rhumerus -37.8597 -16.2765 -78.3732
rradius 29.4608
rwrist 14.3987
rhand 177.467 -68.8926
rfingers 7.12502
rthumb -156.838 -40.2651
lclavicle 4.36954e-014 1.78906e-014
lhumerus -33.372 -2.39839 90.7906
lradius 26.5659
lwrist 9.36021
lhand -25.0999 -16.8011
lfingers 7.12502
lthumb 1.41511 13.1739
rfemur -19.5229 4.03822 28.2644
rtibia 35.2385
rfoot -16.7888 12.2722
rtoes 5.63392
lfemur -28.4624 6.75632 -18.6524
ltibia 70.758
lfoot -5.42833 3.62307
ltoes -15.5359
21
root 7.17398 15.7026 -27.7598 4.95739 -0.600323 -2.4336
lowerback 2.03216 2.12561 2.73166
upperback -2.90907 3.02312 1.92965
thorax -4.10289 1.45289 0.294685
lowerneck -9.98872 -1.78527 -4.44793
upperneck 16.1706 -2.60068 5.2844
head 6.69359 -1.08451 2.20826
rclavicle 1.002e-014 -1.86858e-014
rhumerus -36.6248 -14.4498 -79.8148
rradius 31.284
rwrist 12.0577
rhand 177.452 -68.7642
rfingers 7.12502
rthumb -156.852 -40.1349
lclavicle 1.002e-014 -1.86858e-014
lhumerus -34.1825 -1.60395 90.5118
lradius 24.7185
lwrist 7.51846
lhand -25.0587 -16.6951
lfingers 7.12502
lthumb 1.45491 13.2796
rfemur -18.4806 3.74378 28.4584
rtibia 34.7521
rfoot -16.8375 12.9493
rtoes 7.81313
lfemur -30.1057 6.75846 -18.6722
ltibia 69.9876
lfoot -6.27501 3.4495
ltoes -18.566
22
root 7.18289 15.7061 -27.5283 5.15325 -0.791519 -2.48106
lowerback 1.80565 2.26686 2.81599
upperback -2.93751 3.20216 1.82488
thorax -3.99123 1.53901 0.139825
lowerneck -9.9851 -1.85556 -4.2886
upperneck 16.1872 -2.71376 5.22162
head 6.70136 -1.13437 2.1515
rclavicle 8.79622e-015 5.1684e-015
rhumerus -35.653 -13 -80.8116
rradius 33.1552
rwrist 10.6088
rhand 177.619 -68.5202
rfingers 7.12502
rthumb -156.692 -39.9111
lclavicle 8.79622e-015 5.1684e-015
lhumerus -35.1959 -1.26583 90.3358
lradius 23.1955
lwrist 5.89706
lhand -24.977 -16.1478
lfingers 7.12502
lthumb 1.53378 13.8264
rfemur -17.5991 3.41765 28.5153
rtibia 34.43
rfoot -17.3982 13.8156
rtoes 7.48724
lfemur -31.681 6.63302 -18.7832
ltibia 68.8501
lfoot -7.37111 3.20916
ltoes -18.5571
23
root 7.19157 15.6953 -27.3024 5.23431 -1.05854 -2.62662
lowerback 1.91825 2.4064 3.01681
upperback -3.0166 3.40128 1.74738
thorax -4.11835 1.62822 -0.0682292
lowerneck -10.2219 -1.91716 -4.08743
upperneck 16.4994 -2.80384 5.03548
head 6.8426 -1.1757 2.05036
rclavicle -1.49648e-014 -1.43125e-014
rhumerus -34.7975 -11.354 -81.8135
rradius 35.1602
rwrist 8.7266
rhand 177.631 -68.4295
rfingers 7.12502
rthumb -156.681 -39.8219
lclavicle -1.49648e-014 -1.43125e-014
lhumerus -36.1894 0.107146 89.5811
lradius 21.4158
lwrist 3.4156
lhand -23.9 -16.2474
lfingers 7.12502
lthumb 2.57394 13.7168
rfemur -16.6216 2.98903 28.6725
rtibia 34.0729
rfoot -18.1877 14.9073
rtoes 6.61812
lfemur -32.9778 6.49227 -18.7965
ltibia 67.4133
lfoot -8.34771 3.29944
ltoes -19.8573
24
root 7.20088 15.6757 -27.0764 5.28545 -1.35181 -2.90945
lowerback 1.98378 2.51283 3.3724
upperback -2.98757 3.55817 1.71788
thorax -4.09974 1.69485 -0.306006
lowerneck -10.2606 -1.87533 -4.07502
upperneck 16.3564 -2.76363 5.1576
head 6.8029 -1.14565 2.09042
rclavicle 3.77147e-015 1.59028e-015
rhumerus -33.7466 -9.39084 -82.9301
rradius 37.3308
rwrist 6.14614
rhand 177.704 -68.589
rfingers 7.12502
rthumb -156.611 -39.9903
lclavicle 3.77147e-015 1.59028e-015
lhumerus -36.8567 2.17635 88.3579
lradius 19.3952
lwrist 0.218805
lhand -23.2745 -16.5074
lfingers 7.12502
lthumb 3.17802 13.4486
rfemur -15.5529 2.46263 28.9441
rtibia 33.5781
rfoot -18.84 16.2075
rtoes 5.26643
lfemur -34.1544 6.4982 -18.6546
ltibia 65.8047
lfoot -9.07268 3.45425
ltoes -19.8261
25
root 7.21091 15.6795 -26.8427 5.3821 -1.53585 -3.20048
lowerback 1.88033 2.59124 3.768
upperback -2.89721 3.6672 1.67251
thorax -3.91777 1.73998 -0.569389
lowerneck -10.1188 -1.83466 -4.11906
upperneck 15.8816 -2.73705 5.44949
head 6.62901 -1.11657 2.19213
rclavicle -5.43241e-015 -2.38542e-015
rhumerus -32.7479 -7.42389 -83.9675
rradius 39.6887
rwrist 3.31729
rhand 177.176 -68.2939
rfingers 7.12502
rthumb -157.117 -39.6316
lclavicle -5.43241e-015 -2.38542e-015
lhumerus -37.639 3.8107 87.168
lradius 17.8819
lwrist -2.65748
lhand -24.0797 -18.4727
lfingers 7.12502
lthumb 2.40038 11.4935
rfemur -14.4142 1.84868 29.2043
rtibia 32.9168
rfoot -18.9206 17.3116
rtoes 4.90738
lfemur -35.3374 6.21343 -18.3259
ltibia 64.0283
lfoot -9.9428 3.03393
ltoes -12.3653
26
root 7.22191 15.6989 -26.6078 5.53691 -1.69111 -3.49416
lowerback 1.86094 2.67556 4.16138
upperback -2.92648 3.79342 1.64098
thorax -3.90699 1.79022 -0.824957
lowerneck -10.1882 -1.88874 -3.98205
upperneck 15.8113 -2.81593 5.37021
head 6.61999 -1.15243 2.1359
rclavicle 2.70673e-014 2.18663e-014
rhumerus -32.0325 -5.67975 -84.679
rradius 41.989
rwrist 0.984633
rhand 176.399 -67.9532
rfingers 7.12502
rthumb -157.862 -39.2006
lclavicle 2.70673e-014 2.18663e-014
lhumerus -38.834 5.27804 85.9193
lradius 16.7679
lwrist -5.39713
lhand -24.4763 -24.9042
lfingers 7.12502
lthumb 2.01734 5.066
rfemur -13.2861 1.18404 29.4437
rtibia 32.1499
rfoot -18.2383 18.0014
rtoes 6.88897
lfemur -36.4869 5.93376 -18.0205
ltibia 62.0158
lfoot -10.7617 2.54176
ltoes -6.75671
27
root 7.23316 15.7047 -26.3744 5.7937 -2.08081 -3.56648
lowerback 1.7734 2.81147 4.20073
upperback -3.00935 3.97426 1.62973
thorax -3.93285 1.87751 -0.863945
lowerneck -10.2898 -1.93251 -3.89715
upperneck 15.8925 -2.86416 5.21623
head 6.66295 -1.18124 2.06769
rclavicle -1.68346e-015 5.1684e-015
rhumerus -31.369 -4.04175 -85.0655
rradius 44.0082
rwrist -0.941651
rhand 175.675 -68.2491
rfingers 7.12502
rthumb -158.558 -39.4157
lclavicle -1.68346e-015 5.1684e-015
lhumerus -40.1684 7.2046 84.3963
lradius 15.5957
lwrist -8.56708
lhand -23.1011 -17.2747
lfingers 7.12502
lthumb 3.34548 12.6788
rfemur -12.2871 0.366244 29.4092
rtibia 31.3626
rfoot -17.2884 18.8938
rtoes 8.61431
lfemur -37.5467 6.25946 -18.2021
ltibia 59.6472
lfoot -11.4634 2.63214
ltoes -10.5645
28
root 7.24702 15.7008 -26.139 5.94434 -2.61207 -3.49876
lowerback 1.68406 2.96678 4.14392
upperback -2.98193 4.17078 1.56915
thorax -3.84445 1.97825 -0.897203
lowerneck -10.3973 -1.91905 -3.80098
upperneck 15.8852 -2.83028 5.05088
head 6.67427 -1.1714 2.00073
rclavicle 2.60765e-014 -1.55052e-014
rhumerus -30.4918 -2.79237 -85.2834
rradius 45.7553
rwrist -1.9499
rhand 174.429 -68.4574
rfingers 7.12502
rthumb -159.755 -39.4924
lclavicle 2.60765e-014 -1.55052e-014
lhumerus -41.4583 9.07463 82.8211
lradius 14.5501
lwrist -11.5362
lhand -22.1552 -16.5525
lfingers 7.12502
lthumb 4.25885 13.3846
rfemur -11.1618 -0.502652 29.1751
rtibia 30.5559
rfoot -16.4072 20.1312
rtoes 10.5146
lfemur -38.261 6.57853 -18.4352
ltibia 56.9298
lfoot -12.3125 2.68029
ltoes -12.5698
29
root 7.26264 15.691 -25.9023 5.99835 -3.02077 -3.45792
lowerback 1.70117 3.0774 4.21209
upperback -2.92503 4.31506 1.44828
thorax -3.77452 2.04811 -1.06389
lowerneck -10.5255 -1.8906 -3.56241
upperneck 15.7923 -2.78215 4.79849
head 6.65817 -1.15384 1.88284
rclavicle 4.70281e-014 2.14687e-014
rhumerus -29.5175 -1.67698 -85.5551
rradius 47.644
rwrist -2.09069
rhand 173.078 -68.4853
rfingers 7.12502
rthumb -161.054 -39.388
lclavicle 4.70281e-014 2.14687e-014
lhumerus -42.7498 10.6486 81.1492
lradius 13.6963
lwrist -14.2063
lhand -21.5072 -17.6699
lfingers 7.12502
lthumb 4.88459 12.2538
rfemur -9.89914 -1.19832 28.9233
rtibia 29.7288
rfoot -15.1138 21.3427
rtoes 14.7905
lfemur -38.764 6.56053 -18.5055
ltibia 53.9947
lfoot -12.8304 2.8573
ltoes -12.7921
30
root 7.27572 15.682 -25.667 6.1731 -3.35006 -3.76621
lowerback 1.74157 3.16833 4.536
upperback -2.96304 4.45201 1.44902
thorax -3.80777 2.1053 -1.25096
lowerneck -10.4345 -1.85904 -3.55822
upperneck 15.4971 -2.74591 4.88423
head 6.54746 -1.13251 1.91208
rclavicle 3.95737e-014 1.70955e-014
rhumerus -28.7952 -0.0409332 -85.964
rradius 50.1157
rwrist -3.18605
rhand 173.188 -68.487
rfingers 7.12502
rthumb -160.948 -39.4001
lclavicle 3.95737e-014 1.70955e-014
lhumerus -44.2579 11.7325 79.6767
lradius 13.1232
lwrist -16.2278
lhand -20.7051 -17.7467
lfingers 7.12502
lthumb 5.6591 12.1578
rfemur -8.72588 -1.80415 29.0327
rtibia 28.8717
rfoot -13.7778 22.4732
rtoes 18.1234
lfemur -39.2978 6.34926 -18.1582
ltibia 50.9153
lfoot -13.12 3.7518
ltoes -16.564
